<svg xmlns="http://www.w3.org/2000/svg" width="256" height="256"><path fill-opacity=".016" d="M0 128.004v128.004l128.25-.254 128.25-.254.254-127.75L257.008 0H0v128.004m.485.496c0 70.4.119 99.053.265 63.672.146-35.38.146-92.98 0-128C.604 29.153.485 58.1.485 128.5" fill="#1976D2" fill-rule="evenodd"/><path fill-opacity=".434" d="M105.605 1.545c-8.687 1.635-28.514 7.937-31.239 9.93-1.594 1.165-1.539 1.358.704 2.518 1.336.691 3.428 2.165 4.647 3.275l2.217 2.019 7.783-2.562c25.342-8.34 53.473-8.36 76.595-.056 38.827 13.946 65.629 43.91 75.879 84.831 3.269 13.048 3.269 38.952 0 52-11.175 44.613-41.93 75.919-86.16 87.7-11.137 2.966-35.657 3.633-48.715 1.325-45.298-8.009-81.352-41.848-93.268-87.541-2.821-10.816-3.836-32.17-2.095-44.074 3.092-21.147 11.768-40.549 25.998-58.14l6.905-8.536-1.747-5.647-1.747-5.647-5.468 5.78C19.505 56.044 8.818 75.7 2.846 99.5.249 109.851-.753 134.421.947 146.049c8.252 56.438 52.566 100.752 109.004 109.004 12.865 1.881 36.296.743 48.049-2.335 37.509-9.822 65.626-31.888 83.937-65.871 4.735-8.788 10.509-25.66 12.095-35.347.631-3.85 1.557-7.781 2.058-8.736 1.065-2.032 1.253-31.441.194-30.381-.394.393-1.305-2.769-2.024-7.029-1.758-10.408-7.476-27.205-12.323-36.201C223.655 35.223 195.562 13.171 158 3.264c-8.001-2.11-12.261-2.561-27-2.855-12.57-.251-19.724.069-25.395 1.136m5.829 18.906c-4.436.69-11.973 2.498-16.75 4.019L86 27.235v5.203c0 7.725-4.083 15.188-10.426 19.057-4.189 2.555-5.91 2.999-11.5 2.962-4.186-.027-7.726-.657-9.745-1.735l-3.171-1.692-4.709 5.235c-19.318 21.474-29.595 53.144-26.468 81.565 1.498 13.609 4.267 23.79 9.463 34.793 14.473 30.645 41.09 52.332 74.384 60.607 10.35 2.573 34.723 3.084 44.672.937 33.648-7.262 61.51-28.445 76.506-58.167 13.199-26.16 14.785-59.984 4.107-87.578-6.769-17.494-20.797-36.06-35.863-47.465-22.684-17.172-53.526-24.902-81.816-20.506m2.066 26.618c-17.871 2.979-36.691 13.949-48.517 28.279-12.753 15.455-18.995 32.904-18.968 53.03.03 22.456 7.085 40.3 22.246 56.26 13.986 14.723 30.696 22.978 51.23 25.307 16.811 1.907 34.459-1.708 48.948-10.027 6.891-3.956 6.966-3.973 10.77-2.451 5.561 2.225 12.434 1.912 18.332-.834 13.733-6.395 17.506-22.737 8.262-35.786-.923-1.304-.689-3.206 1.11-9 2.862-9.22 3.954-28.738 2.131-38.076-6.773-34.678-33.543-61.265-67.183-66.724-7.361-1.194-21.131-1.184-28.361.022m-3.5 9.97c-20.566 5.288-37.818 19.039-47.641 37.972-5.769 11.117-7.845 20.012-7.817 33.489.027 13.368 1.758 20.534 8.053 33.352C68.74 174.363 80.569 186.566 92.5 192.7c13.518 6.951 21.031 8.806 35.5 8.764 14.341-.042 21.398-1.587 32.826-7.187 5.427-2.66 7.193-4.003 6.816-5.184-.28-.876-1.259-3.618-2.174-6.093-3.669-9.916.602-21.675 9.976-27.471 4.226-2.613 5.785-3.009 11.473-2.914 3.621.061 7.465.284 8.543.497 3.324.658 5.788-9.934 5.841-25.112.039-11.393-.235-13.341-3.097-22-6.21-18.788-20.44-35.233-37.616-43.472-4.998-2.398-12.327-5.072-16.285-5.944-9.84-2.166-24.888-1.966-34.303.455m16.588 12.465c-1.793 7.144-7.072 18.98-11.464 25.705-9.047 13.85-22.52 23.644-40.265 29.27l-6.908 2.19 4.275 1.265c7.848 2.323 17.976 7.047 24.714 11.526 13.223 8.791 21.773 20.489 27.419 37.514l3.159 9.526 3.125-9.5c5.515-16.765 14.299-28.819 27.299-37.462 6.82-4.533 16.942-9.268 24.76-11.582l4.201-1.244-8.701-2.917c-24.482-8.209-39.562-23.629-48.187-49.274-2.49-7.405-2.737-7.766-3.427-5.017m-8.846 41.444c-12.241 7.764-11.501 25.758 1.329 32.3 4.091 2.086 11.741 2.275 16.227.401 4.402-1.839 9.459-7.839 10.276-12.19 3.238-17.262-13.502-29.598-27.832-20.511M.402 128c0 8.525.154 12.012.341 7.75.188-4.262.188-11.237 0-15.5-.187-4.263-.341-.775-.341 7.75" fill="#1976D2" fill-rule="evenodd"/><path fill-opacity=".373" d="M108.5 1.576c-9.152 1.405-30.003 7.583-32.873 9.739-1.373 1.032-1.061 1.614 2.411 4.502l3.987 3.317L87.728 17c17.296-6.471 40.669-8.659 59.269-5.549 53.002 8.862 93.295 52.485 97.899 105.987 4.701 54.622-29.257 105.435-81.44 121.866-12.858 4.049-20.008 5.076-35.456 5.09-22.237.022-40.627-4.841-59-15.6-33.297-19.497-53.842-51.677-58.013-90.869-3.29-30.901 8.546-66.02 30.147-89.454 3.938-4.273 3.97-4.369 2.428-7.351-.859-1.661-1.576-4.056-1.592-5.32-.026-1.932-1.202-1.089-7.352 5.275C18.767 57.477 7.579 78.981 2.401 103c-2.562 11.885-2.562 38.115 0 50C13.435 204.185 51.815 242.565 103 253.599c11.885 2.562 38.115 2.562 50 0 16.838-3.63 32.765-10.371 47-19.892 9.636-6.446 27.261-24.071 33.707-33.707 10.408-15.56 18.048-34.779 20.298-51.062.642-4.641 1.578-9.219 2.081-10.174 1.073-2.039 1.255-23.439.19-22.374-.398.398-1.271-3.014-1.94-7.583-6.083-41.507-33.986-78.714-72.602-96.81C159.691 1.667 132.812-2.158 108.5 1.576m.847 19.457c-2.834.508-9.126 2.188-13.981 3.735l-8.828 2.812-.182 5.035c-.478 13.222-9.581 22.312-22.395 22.363-3.516.014-6.907-.676-9.287-1.889l-3.749-1.912-4.891 5.878C28.563 78.048 20 101.22 20 127.5c0 29.083 10.832 55.369 31.273 75.893 29.958 30.078 74.344 40.04 113.968 25.578 33.087-12.075 58.159-39.761 67.441-74.471 2.401-8.981 2.674-11.732 2.674-27 0-15.265-.273-18.021-2.673-27-1.511-5.655-5.049-14.78-8.143-21-13.922-27.998-37.413-47.277-68.54-56.25-7.134-2.057-11.151-2.506-25-2.795-9.075-.189-18.819.071-21.653.578M121.5 45.668c-14.179 1.296-28.443 6.408-39.817 14.271-29.183 20.173-42.61 55.49-33.786 88.863 6.221 23.53 22.75 43.463 44.603 53.791 11.404 5.389 18.575 7.281 30.5 8.048 16.015 1.03 33.37-2.968 46.087-10.617 6.094-3.665 6.37-3.731 9.752-2.318 5.024 2.099 14.216 1.817 18.916-.581 5.02-2.561 10.67-8.851 12.25-13.639 1.952-5.915.772-15.713-2.484-20.633-2.62-3.96-2.658-4.213-1.213-8.22 7.786-21.584 4.973-48.077-7.296-68.73-8.127-13.679-23.217-27.123-37.567-33.47-10.581-4.679-28.874-7.777-39.945-6.765m-5.737 10.296c-27.043 4.946-49.075 24.01-57.504 49.758-3.678 11.234-4.301 28.721-1.428 40.08 5.105 20.19 17.823 36.716 36.169 46.999 6.619 3.71 20.044 7.693 29.119 8.64 12.437 1.297 30.659-2.605 41.306-8.844l4.468-2.618-1.925-4.24c-2.504-5.517-2.552-14.857-.103-20.248 2.065-4.545 7.899-10.077 12.78-12.116 3.813-1.593 12.085-1.809 15.762-.41 2.421.92 2.611.726 4.159-4.25.911-2.927 1.857-10.494 2.155-17.246.448-10.128.198-13.371-1.583-20.5-6.397-25.616-24.932-44.991-50.638-52.935-7.859-2.428-24.888-3.505-32.737-2.07m9.819 15.786c-.981 3.162-3.472 9.35-5.536 13.75-9.242 19.707-22.546 31.164-44.495 38.318l-8.707 2.837 8.481 2.759c18.027 5.864 33.414 17.405 41.445 31.086 2.26 3.85 5.588 11.351 7.396 16.669l3.287 9.668 3.617-10.281c1.99-5.655 5.36-13.148 7.488-16.651 8.14-13.401 23.436-24.739 41.145-30.5l8.51-2.768-9.357-3.106c-21.865-7.257-34.632-18.313-43.917-38.031-2.072-4.4-4.513-10.588-5.424-13.75-.911-3.162-1.768-5.75-1.903-5.75-.136 0-1.049 2.588-2.03 5.75m-5.123 38.074c-7.525 3.522-12.198 11.63-11.161 19.364 1.567 11.679 14.412 18.885 25.448 14.274 4.958-2.072 7.188-4.204 9.373-8.962 7.045-15.341-8.645-31.705-23.66-24.676M.378 128c0 6.325.163 8.912.361 5.75.198-3.163.198-8.338 0-11.5-.198-3.163-.361-.575-.361 5.75" fill="#1976D2" fill-rule="evenodd"/><path fill-opacity=".719" d="M115.015 1.101c-11.07 1.221-22.977 4.088-32.961 7.938l-8.031 3.097 4.209 3.211 4.209 3.21 7.894-2.793c11.311-4.003 23.325-5.901 37.665-5.95 31.609-.108 60.098 11.513 82.393 33.609 17.131 16.977 27.717 36.308 33.263 60.739 2.304 10.149 2.304 36.527 0 46.676-5.465 24.077-16.589 44.317-33.4 60.769-41.113 40.236-106.297 44.652-152.22 10.312C22.76 195.541 4.974 152.812 11.449 110c3.459-22.87 11.957-40.556 30.163-62.776 2.333-2.848 2.535-3.607 1.536-5.797-.631-1.387-1.148-3.4-1.148-4.474 0-3.135-1.431-2.335-7.45 4.167C12.684 64.737.766 95.127.674 127.5c-.1 35.33 12.366 65.575 37.309 90.517 24.942 24.943 55.187 37.409 90.517 37.309 54.873-.156 102.986-34.891 120.425-86.941 3.261-9.736 6.075-24.128 6.075-31.075 0-2.697.391-4.186 1-3.81.634.392.974-2.056.93-6.691-.048-5.012-.341-6.68-.93-5.309-.651 1.515-.876.881-.93-2.619-.111-7.316-2.908-21.602-6.086-31.088-12.699-37.905-42.872-68.078-80.777-80.777-15.995-5.359-37.022-7.697-53.192-5.915m-5.197 20.331c-4.225.747-11.212 2.534-15.526 3.971l-7.843 2.612.386 4.057C88.363 48.093 69.059 60.77 54.556 53.27l-3.014-1.558-5.611 6.196c-6.699 7.397-13.703 18.875-17.872 29.285-24.215 60.475 9.535 127.552 72.735 144.556 8.719 2.346 11.485 2.611 27.206 2.611s18.487-.265 27.206-2.611c5.338-1.436 13.54-4.408 18.227-6.605 53.968-25.29 77.256-89.221 52.047-142.878-6.053-12.885-13.267-22.884-23.608-32.725-13.955-13.28-28.868-21.441-48.841-26.729-9.794-2.592-32.29-3.311-43.213-1.38m.882 25.498c-26.282 5.735-49.78 25.557-59.649 50.318-18.988 47.639 8.45 99.9 58.74 111.884 7.223 1.722 10.841 1.993 21.209 1.591 15.089-.585 21.402-2.172 34.5-8.674l10-4.963 5.631 1.588c10.734 3.028 21.265-1.225 27.296-11.024 4.846-7.874 3.93-19.885-2.036-26.716-1.165-1.334-1.077-2.398.597-7.159 4.739-13.483 5.176-33.765 1.03-47.775-8.434-28.501-31.041-50.806-58.963-58.176-11.111-2.932-27.285-3.309-38.355-.894m9.3 9.106c-52.444 6.06-81.148 62.258-55.483 108.631 5.721 10.338 18.739 22.752 29.483 28.117 21.616 10.792 45.561 11.052 66.627.723l7.128-3.495-2.118-4.256c-8.505-17.092 8.23-38.168 26.838-33.799 4.705 1.105 4.819.98 6.667-7.341 2.167-9.761 1.655-27.649-1.049-36.616C187.798 73.86 154.944 51.999 120 56.036m5.019 16.161c-1.214 4.017-4.188 11.148-6.609 15.848-9.47 18.388-21.519 28.258-43.348 35.51l-9.438 3.136 7.076 2.149c21.301 6.47 38.289 19.795 46.099 36.16 2.231 4.675 5.033 11.762 6.226 15.75 1.194 3.988 2.307 7.25 2.475 7.25.168 0 1.281-3.262 2.475-7.25 4.229-14.132 9.498-23.368 18.397-32.246 6.837-6.82 9.796-8.928 18.628-13.268 5.775-2.838 12.75-5.688 15.5-6.334 2.75-.646 5.366-1.501 5.813-1.901.447-.399-3.153-1.956-8-3.458-13.93-4.319-21.728-8.865-30.868-17.996-8.898-8.889-14.24-17.917-18.972-32.061-1.47-4.392-2.801-8.122-2.959-8.289-.158-.167-1.28 2.983-2.495 7m-1.563 36.968c-14.277 3.076-18.723 21.701-7.446 31.19 13.206 11.112 33.494-1.627 29.025-18.226-2.614-9.706-11.612-15.112-21.579-12.964M.336 128c0 4.125.177 5.813.392 3.75.216-2.062.216-5.437 0-7.5-.215-2.062-.392-.375-.392 3.75" fill="#1976D2" fill-rule="evenodd"/></svg>